<?xml version="1.0" encoding="UTF-8" standalone="no"?>
<!-- Created with Inkscape (http://www.inkscape.org/) -->

<svg
   version="1.1"
   id="svg46"
   width="586.68298"
   height="249.76253"
   viewBox="0 0 586.68298 249.76253"
   xmlns="http://www.w3.org/2000/svg"
   xmlns:svg="http://www.w3.org/2000/svg">
  <defs
     id="defs50" />
  <g
     id="g52"
     transform="translate(-4.804296,-4.9929877)">
    <g
       id="g214"
       transform="translate(-4.1190999,1.2091688)">
      <path
         style="fill:#e0a95b;stroke-width:1.33333"
         d="M 285.33064,251.35317 C 230.86679,240.48727 201.55759,181.66792 225.47468,131.23081 L 229.8519,122 230.59262,89.999998 c 0.58065,-25.085258 1.07268,-31.423324 2.277,-29.331264 2.06282,3.583396 3.89918,50.794406 2.06241,53.022496 -0.74453,0.90316 -2.54631,4.9421 -4.00393,8.97543 -1.45764,4.03334 -4.27571,11.53334 -6.2624,16.66667 -27.84416,71.94574 52.0222,138.01368 122.23597,101.11738 33.35969,-17.53002 50.80462,-65.72975 36.59741,-101.11738 -2.06089,-5.13333 -4.90451,-12.61656 -6.31915,-16.62939 -1.41464,-4.01283 -3.1139,-7.83791 -3.77617,-8.50016 -1.795,-1.79501 -0.003,-50.029828 2.0028,-53.895147 1.3612,-2.623717 1.73776,2.331821 2.17265,28.592118 l 0.52607,31.765909 4.25199,9.49143 c 30.16515,67.33572 -24.53254,135.6581 -97.02663,121.19508 z m 203.33601,-0.10352 c -53.39287,-10.48655 -83.19063,-72.14901 -58.46279,-120.9809 4.0002,-7.89949 6.01511,-31.226391 4.9755,-57.602085 -0.57618,-14.617718 -0.40874,-16.915546 1.0687,-14.666666 5.73484,8.729221 2.47608,58.125881 -4.90017,74.277631 -33.67372,73.73512 43.08242,145.52702 117.31876,109.7311 39.89401,-19.23646 56.62309,-71.18919 36.20027,-112.42116 -5.21178,-10.52215 -6.72614,-22.9457 -5.73313,-47.033572 1.39388,-33.811718 3.22429,-30.169058 3.76751,7.497593 0.47538,32.964079 0.51361,33.345909 4.00506,40.005349 8.65652,16.51108 11.27659,43.53227 5.93386,61.19676 -13.48827,44.59569 -56.48973,69.36123 -104.17357,59.99595 z M 354.38193,187.00818 c -6.4958,-6.88725 -12.17636,-33.69174 -9.81157,-46.29716 2.4966,-13.308 17.34219,-13.62945 24.70176,-0.53486 7.12004,12.66841 1.16985,46.71992 -8.68151,49.68217 -1.94986,0.58631 -3.7446,-0.23757 -6.20868,-2.85015 z M 228.56666,176.70117 c -7.51454,-11.46864 5.6543,-55.07424 19.37436,-64.15374 14.08618,-9.3218 32.0185,-9.33024 33.14834,-0.0156 0.43132,3.55589 -4.68404,15.46816 -6.64232,15.46816 -0.59414,0 -2.67749,2.55 -4.62965,5.66666 -1.95215,3.11667 -4.00087,5.96667 -4.55271,6.33334 -1.51977,1.00982 -12.79045,20.4053 -13.91333,23.94318 -4.60747,14.51684 -17.06264,21.49095 -22.78469,12.75799 z m 332.46812,-1.65181 c -4.88756,-5.45583 -6.70271,-30.02748 -2.5931,-35.10266 6.7129,-8.29007 14.23943,2.2404 13.28764,18.5909 -0.89118,15.30945 -5.45681,22.35849 -10.69454,16.51176 z m -125.15456,-5.93979 c -6.28912,-11.75135 6.51931,-47.34003 19.21703,-53.39514 17.81428,-8.49504 24.11593,-1.9337 12.03289,12.52875 -4.7729,5.7128 -7.50948,11.29323 -12.46333,25.41534 -5.44931,15.5345 -14.67924,23.12568 -18.78659,15.45105 z M 345.02249,96.57806 c -1.55013,-1.550126 -32.72282,-5.911316 -42.35584,-5.925754 -12.88581,-0.01932 -19.99999,-1.223846 -19.99999,-3.386276 0,-0.945114 -3.15,-2.747894 -7,-4.006179 -19.10319,-6.243448 -27.70342,-15.223107 -21,-21.926519 l 2.66666,-2.666667 v 3.399547 c 0,14.275241 13.61754,20.325603 46.66667,20.734307 30.75624,0.380348 44.55378,-5.08824 46.5761,-18.460207 l 0.75723,-5.00698 2.94917,2.76054 c 4.95212,4.635372 0.86303,10.677547 -11.30874,16.710145 -5.3311,2.64221 -10.04259,5.153701 -10.46999,5.58109 -0.42739,0.427389 3.48443,2.923124 8.69292,5.546077 9.29068,4.678715 11.87555,7.402147 7.02553,7.402147 -1.34445,0 -2.78432,-0.339872 -3.19972,-0.755271 z M 355.683,95.90235 c -5.47467,-3.189583 -5.35985,-5.944534 0.7306,-17.531996 3.19063,-6.070363 6.16029,-12.439206 6.59927,-14.152988 1.64061,-6.405146 5.6084,-2.995069 5.1881,4.458863 -1.33146,23.613397 -5.00501,31.603221 -12.51797,27.226121 z M 244.3213,94.333331 c -1.16092,-1.445507 -3.5115,-15.82944 -4.63012,-28.333333 -0.54187,-6.056808 5.81237,-5.892794 7.05482,0.182098 0.47043,2.300154 3.04503,8.097645 5.72132,12.883313 2.67631,4.785669 4.866,9.619702 4.866,10.742297 0,4.625122 -10.1085,8.140895 -13.01202,4.525625 z m 205.20686,-4.666667 c -1.65023,-4.138726 -4.16951,-19.055224 -4.18478,-24.777776 -0.0141,-5.301771 2.72368,-3.884222 4.86607,2.51949 0.96755,2.892058 3.69532,8.941277 6.06171,13.442709 3.67506,6.990857 4.04242,8.497805 2.51908,10.333333 -2.87007,3.458223 -7.58615,2.685411 -9.26208,-1.517756 z m 110.08859,2.838991 c -1.86614,-1.866137 -0.88393,-6.143457 3.57947,-15.58788 2.49126,-5.271444 4.87244,-10.634443 5.29149,-11.917777 1.97387,-6.044922 3.79265,-2.050632 2.89272,6.352804 -1.98673,18.551814 -6.41037,26.50617 -11.76368,21.152853 z M 530.41093,91.29983 c -0.3851,-0.385094 -8.807,-1.196367 -18.71534,-1.802831 -13.18072,-0.806757 -18.85696,-1.69228 -21.15206,-3.299831 -1.7253,-1.208444 -3.88088,-2.19717 -4.7902,-2.19717 -13.01954,0 -31.07565,-15.536625 -25.82045,-22.217534 l 2.73377,-3.475422 v 4.800083 c 0,13.364465 12.15938,18.524801 44.65386,18.950712 33.69944,0.441705 47.2916,-5.039318 47.37579,-19.104233 l 0.0296,-4.953605 2.60737,3.333333 c 3.43317,4.389064 3.41237,4.500241 -1.95309,10.439175 -4.29136,4.750019 -8.66915,7.316515 -18.71357,10.970922 l -4,1.455295 3.66666,2.678512 c 2.01667,1.473182 3.66667,3.228468 3.66667,3.900638 0,1.279997 -8.37513,1.735876 -9.58905,0.521956 z"
         id="path228" />
      <path
         style="fill:#6a8be6;stroke-width:1.33333"
         d="M 79.684512,252.04791 C 23.595118,241.78934 -6.6273969,183.54176 17.050189,131.33333 l 4.83755,-10.66667 0.795521,-36.666662 C 23.66668,38.672742 26.383111,30.050994 44.090877,16.05381 57.122332,5.7530369 61.94534,4.6979337 95.999996,4.6979337 c 39.050474,0 51.042454,4.5033222 63.176614,23.7245973 9.11181,14.433668 9.26518,15.281725 10.17149,56.244133 L 170.17411,122 l 3.66686,7.12784 c 32.32813,62.84133 -23.57972,135.82833 -94.156458,122.92007 z m 38.895998,-3.54045 c 49.04984,-10.95879 77.03538,-71.21934 54.09707,-116.4859 -1.71928,-3.39286 -3.53785,-8.36432 -4.04125,-11.0477 -0.50342,-2.68337 -1.73418,-5.55847 -2.73504,-6.38911 -2.16463,-1.79649 -1.44875,-39.981832 0.96196,-51.310888 4.02354,-18.908568 -12.46371,-45.837465 -33.15048,-54.145179 -11.76667,-4.7254439 -63.658873,-4.7254439 -75.425546,0 -21.146608,8.492385 -36.622697,34.063453 -33.157968,54.786751 2.42171,14.484763 3.04485,46.635326 0.981743,50.652436 -2.080423,4.05083 -6.664282,15.27884 -10.249929,25.10685 -23.444066,64.25857 33.270995,124.34899 102.71944,108.83274 z m 25.39539,-65.4363 c -4.29184,-9.00818 -4.83293,-41.07242 -0.76925,-45.58434 7.87512,-8.7438 18.12668,1.57384 18.12668,18.24354 0,27.28834 -9.93016,42.92998 -17.35743,27.3408 z m -119.508633,-4.3965 c -14.5382539,-5.86542 1.35628,-60.40647 20.003133,-68.63943 27.039912,-11.938671 34.543604,0.57346 14.771799,24.63143 -3.314755,4.03334 -9.680162,14.70262 -14.14535,23.70952 -9.797976,19.76387 -13.333078,23.24223 -20.629582,20.29848 z M 36.07332,93.470332 c -0.744611,-1.391316 -2.054141,-8.228177 -2.910071,-15.193026 -2.298066,-18.699776 0.08292,-21.913566 6.120573,-8.261368 1.727974,3.907255 4.696012,9.391372 6.59564,12.186927 4.230265,6.225394 4.347223,9.020193 0.490528,11.721527 -4.02207,2.817168 -8.655309,2.612852 -10.29667,-0.45406 z m 109.26001,-0.137001 c -3.57626,-3.576259 -3.47308,-4.142351 2.58612,-14.188629 2.88902,-4.790076 5.62569,-10.407088 6.08146,-12.482246 0.96154,-4.377827 4.37894,-6.294638 5.59103,-3.135988 1.00339,2.61478 -2.035,26.883884 -3.77343,30.140196 -1.67178,3.131487 -7.19598,2.955868 -10.48518,-0.333333 z M 112.66666,91.938655 C 109,91.367548 100.6,90.787908 93.999996,90.650566 80.945345,90.378904 75.16882,89.231099 75.627354,86.999892 75.789068,86.213004 71.589068,84.27198 66.294021,82.686505 54.037237,79.016501 48.123465,75.127862 44.248018,68.190012 c -3.080317,-5.514404 -3.080789,-5.523347 -0.291486,-5.523347 1.536604,0 3.008866,-0.75 3.271694,-1.666667 6.132456,-21.388212 14.456434,-28.288958 36.826839,-30.530187 35.199925,-3.526581 52.849355,4.257201 59.146765,26.085001 1.14835,3.980372 2.36026,5.55935 4.50504,5.869572 7.43698,1.075676 -5.69018,14.91005 -18.05096,19.023453 l -8.58043,2.855381 5.46226,3.257296 c 9.37103,5.588208 4.25838,7.201918 -13.87108,4.378141 z m 19.33333,-14.463802 c 18.96215,-9.644228 10.181,-38.314259 -13.53425,-44.188725 -23.730341,-5.878201 -55.1903,0.312088 -63.389531,12.472981 -14.990004,22.232797 -2.018999,35.86714 34.788624,36.567717 10.974077,0.208875 20.159877,0.586771 20.412877,0.839771 0.89765,0.897653 17.12801,-3.355078 21.72228,-5.691744 z m 99.16133,-23.794386 c 3.2016,-20.904392 16.87999,-38.59341 35.50534,-45.9158475 16.02293,-6.2993131 66.05347,-4.8318569 80.23274,2.3533235 15.86979,8.041829 30.91252,30.370739 30.31655,45.000848 -0.0645,1.584664 -1.14895,-1.018792 -2.40978,-5.785459 -8.68481,-32.833614 -26.6541,-43.9999988 -70.80618,-43.9999988 -43.79037,0 -64.72783,13.4009948 -70.66904,45.2316378 -1.61017,8.626663 -3.40937,11.210239 -2.16963,3.115496 z m 26.09875,1.241638 c 6.36291,-22.186175 38.03128,-31.815866 72.90461,-22.168773 10.28088,2.844026 25.54021,21.31954 21.19613,25.663613 -0.34726,0.347267 -0.99638,-0.504481 -1.44248,-1.892776 -6.35266,-19.769934 -15.25436,-24.52417 -45.91834,-24.52417 -28.28888,0 -40.24733,5.582771 -44.28352,20.673653 -0.8816,3.296157 -2.03656,5.993013 -2.56661,5.993013 -0.53004,0 -0.48046,-1.685052 0.11026,-3.74456 z M 436.50802,52.5217 c 1.245,-21.32647 21.75235,-43.1529661 44.50564,-47.3685119 14.06095,-2.6050982 56.93941,-0.8251302 66.07569,2.74293 10.69719,4.1776489 23.67728,16.4607409 28.81212,27.2649529 3.98952,8.394348 7.17256,21.763102 5.43708,22.835688 -0.53631,0.331454 -1.3382,-2.463147 -1.78199,-6.210224 -3.73369,-31.52527 -26.51446,-46.4532018 -70.88991,-46.4532018 -44.22815,0 -65.50896,13.9351078 -71.26637,46.6666658 l -1.28992,7.333333 z m 25.53687,2.811632 c 3.65772,-18.193362 16.97737,-25.149939 47.95509,-25.045946 29.22736,0.09812 46.37377,10.052722 45.93764,26.669787 -0.0343,1.306888 -1.21193,-0.567654 -2.61695,-4.165648 -6.17514,-15.813422 -14.18582,-19.842989 -40.83482,-20.540911 -30.61175,-0.801704 -41.94973,3.920168 -48.47892,20.189757 -1.52632,3.803304 -2.40577,5.100026 -1.96204,2.892961 z"
         id="path226" />
      <path
         style="fill:#d99419;stroke-width:1.33333"
         d="m 290.99999,249.74755 c 1.28333,-0.33536 3.38333,-0.33536 4.66667,0 1.28333,0.33538 0.23333,0.60978 -2.33334,0.60978 -2.56666,0 -3.61666,-0.2744 -2.33333,-0.60978 z m 22.69204,-0.005 c 1.29729,-0.33805 3.09729,-0.31583 4,0.0495 0.9027,0.36524 -0.15871,0.64182 -2.35871,0.61465 -2.2,-0.0272 -2.93859,-0.326 -1.64129,-0.66405 z M 275.99999,246.8166 C 232.34462,232.68595 208.14577,182.01874 224.6657,139.33333 226.65239,134.2 229.47046,126.7 230.9281,122.66666 c 1.45762,-4.03333 3.2594,-8.07227 4.00393,-8.97543 1.31393,-1.59386 0.25985,-49.086414 -1.13987,-51.357898 -0.33892,-0.55 0.81196,-1 2.55752,-1 2.84854,0 3.20936,0.648962 3.5214,6.333333 1.23674,22.530107 4.43899,30.162019 11.58711,27.615465 6.84223,-2.437583 7.06977,-5.035879 1.35768,-15.503191 -7.12343,-13.05357 -8.29528,-18.445607 -4.0088,-18.445607 2.60916,0 3.19292,0.6835 3.19292,3.738444 0,6.521527 8.90148,13.362409 23.66667,18.188075 3.85,1.258285 7,3.061065 7,4.006179 0,2.16243 7.11418,3.36696 19.99999,3.386276 8.50451,0.0128 31.61007,3.216589 44.33334,6.147306 6.8343,1.574235 3.84946,-2.007365 -5.66667,-6.799614 -11.36993,-5.72581 -11.40947,-4.960016 0.54105,-10.481499 10.29607,-4.757076 14.45895,-9.038922 14.45895,-14.872163 0,-2.748179 0.64345,-3.313004 3.77419,-3.313004 h 3.77418 l -1.89214,5.362933 c -1.0407,2.949613 -4.07371,9.263913 -6.74006,14.031777 -5.29545,9.469168 -4.69974,13.785601 2.20502,15.977085 6.32697,2.008105 9.79188,-7.164963 10.71676,-28.371795 0.26572,-6.092727 0.66322,-7.000151 3.067,-7.00116 2.7293,-0.0011 2.75101,0.299777 1.84956,25.635886 -0.55003,15.458952 -0.41547,26.235532 0.33894,27.144542 0.68811,0.82912 2.39279,4.74297 3.78816,8.69744 1.39539,3.95448 4.22326,11.38996 6.28415,16.52329 7.74932,19.30217 5.35882,48.75731 -5.68605,70.06241 -3.95286,7.62485 -16.25611,23.42344 -16.41996,21.08481 -0.0328,-0.46902 2.02633,-3.16902 4.57598,-6 7.07571,-7.85642 5.57967,-8.36826 -2.40022,-0.82121 -15.32116,14.49011 -43.89743,23.7018 -70.68296,22.785 -13.07567,-0.44756 -14.18588,-0.32048 -9.51141,1.08868 2.9107,0.87745 4.0922,1.60921 2.62553,1.62613 -1.46667,0.0169 -5.96667,-1.03737 -10,-2.34288 z m 88.15397,-58.63279 c 7.51043,-7.78046 10.73385,-38.01555 5.11816,-48.00732 -7.35957,-13.09459 -22.20516,-12.77314 -24.70176,0.53486 -4.24657,22.63618 10.06631,57.33191 19.5836,47.47246 z M 246.7653,173.1884 c 1.98113,-3.37971 4.04486,-7.54006 4.58605,-9.24522 1.12288,-3.53788 12.39356,-22.93336 13.91333,-23.94318 0.55184,-0.36667 2.60056,-3.21667 4.55271,-6.33334 C 271.76955,130.55 273.8529,128 274.44704,128 c 1.95828,0 7.07364,-11.91227 6.64232,-15.46816 -1.12984,-9.31465 -19.06216,-9.30621 -33.14834,0.0156 -13.72006,9.0795 -26.8889,52.6851 -19.37436,64.15374 4.06208,6.19952 13.58266,4.36183 18.19864,-3.51277 z m 109.90135,60.14493 c 1.32732,-1.46667 2.71331,-2.66667 3.07998,-2.66667 0.36666,0 -0.41932,1.2 -1.74664,2.66667 -1.32732,1.46666 -2.71331,2.66666 -3.07998,2.66666 -0.36666,0 0.41932,-1.2 1.74664,-2.66666 z m 79.6,-61.6 c -0.88,-0.88 -1.58176,-2.23 -1.55945,-3 0.0223,-0.77 0.6521,-0.35 1.39958,0.93333 1.86974,3.21015 6.38271,2.9229 10.47394,-0.66666 l 3.41926,-3 -3.23241,3.66666 c -3.41117,3.86943 -7.82875,4.73884 -10.50092,2.06667 z m -2.82807,-9.84444 c 0.064,-1.55327 0.37992,-1.8692 0.80555,-0.80556 0.38516,0.96249 0.3378,2.11249 -0.1052,2.55556 -0.44305,0.44305 -0.75819,-0.34445 -0.70029,-1.75 z m 22.65559,-11.52857 c -0.15279,-1.57848 4.19084,-11.85307 4.76725,-11.27666 0.2902,0.29019 -0.64253,3.16508 -2.07272,6.38864 -1.4302,3.22358 -2.64273,5.42318 -2.69453,4.88802 z m 5.23915,-14.08122 c 0,-0.54706 2.3083,-3.78802 5.12957,-7.20214 6.79389,-8.22155 9.32805,-14.19267 6.74986,-15.90438 -2.34806,-1.55892 -12.52278,-0.2178 -17.86187,2.35435 -3.67618,1.77103 -3.7962,1.75901 -1.41248,-0.14141 5.74861,-4.58311 17.84962,-6.07367 21.29967,-2.62362 2.65735,2.65735 2.65742,2.65666 -0.81036,8.41405 -3.16799,5.25971 -13.09439,16.70887 -13.09439,15.10315 z m -22.45615,-30.94577 c 0,-1.83333 0.30264,-2.58333 0.67252,-1.66667 0.36988,0.91667 0.36988,2.41667 0,3.33334 -0.36988,0.91666 -0.67252,0.16666 -0.67252,-1.66667 z M 562.41664,93.755846 c 0.9625,-0.385162 2.11251,-0.337792 2.55556,0.105266 0.44306,0.443056 -0.34445,0.758188 -1.75,0.700294 -1.55326,-0.06397 -1.8692,-0.379922 -0.80556,-0.805556 z m -4.97806,-5.200292 c 0.064,-1.553258 0.37992,-1.8692 0.80555,-0.805556 0.38515,0.9625 0.33779,2.1125 -0.1052,2.555556 -0.44306,0.443054 -0.75819,-0.344446 -0.7003,-1.75 z m 21.5643,-17.222223 c 0.0148,-2.933333 0.28786,-3.976337 0.60678,-2.317787 0.31892,1.65855 0.30681,4.05855 -0.0269,5.333333 -0.33372,1.274784 -0.59466,-0.08221 -0.57986,-3.015546 z"
         id="path224" />
      <path
         style="fill:#2655d5;stroke-width:1.33333"
         d="M 84.257149,250.6043 C 30.280397,243.37673 -2.548139,190.13309 15.86107,139.67472 c 3.550201,-9.73085 8.159737,-21.0351 10.210842,-25.04068 1.849524,-3.61191 1.339976,-42.024207 -0.662829,-49.967375 -0.986095,-3.910875 -0.901623,-3.99588 3.791175,-3.815071 16.816107,0.647908 18.030836,0.777324 15.155548,1.614644 l -2.977525,0.867094 3.327843,5.568417 c 4.068929,6.808464 9.041311,9.975358 21.625881,13.773457 5.315939,1.604381 9.356151,3.417338 8.978251,4.028793 -1.381618,2.235504 2.88586,3.118367 19.94083,4.125395 9.578564,0.565576 21.765574,1.447356 27.082244,1.959512 11.3033,1.088848 12.43597,-0.319682 4.20441,-5.228392 l -5.46226,-3.257296 8.58043,-2.855381 c 12.54248,-4.173874 25.30075,-17.766689 17.99791,-19.175211 -2.88927,-0.557261 2.97849,-1.14772 14.49116,-1.458213 5.25297,-0.141671 5.43573,-0.01067 4.44289,3.185585 -2.06988,6.66361 -2.62422,48.976652 -0.66296,50.604362 0.98787,0.81985 2.208,3.68613 2.71142,6.3695 0.5034,2.68338 2.32197,7.65484 4.04125,11.0477 8.32441,16.42742 9.79376,45.24397 3.28628,64.44957 -12.45393,36.75537 -51.10398,59.56996 -91.706711,54.13317 z m 72.061121,-66.67628 c 9.55091,-19.52238 5.31856,-49.26136 -7.01072,-49.26136 -7.34641,0 -8.65492,3.6618 -8.51194,23.82016 0.1949,27.47886 8.14841,40.51443 15.52266,25.4412 z M 33.642684,177.37618 c 1.834603,-1.4431 6.988977,-9.9931 11.454165,-19 4.465188,-9.0069 10.830595,-19.67618 14.14535,-23.70952 19.771805,-24.05797 12.268113,-36.570101 -14.771799,-24.63143 -18.646853,8.23296 -34.5413869,62.77401 -20.003133,68.63943 4.310147,1.73892 5.534215,1.5657 9.175417,-1.29848 z M 46.36999,93.924392 C 50.226685,91.223058 50.109727,88.428259 45.879462,82.202865 43.979834,79.40731 41.011796,73.923193 39.283822,70.015938 33.246173,56.36374 30.865183,59.57753 33.163249,78.277306 35.355363,96.11493 38.285761,99.586807 46.36999,93.924392 Z m 109.44852,-0.257728 c 1.73843,-3.256312 4.77682,-27.525416 3.77343,-30.140196 -1.21209,-3.15865 -4.62949,-1.241839 -5.59103,3.135988 -0.45577,2.075158 -3.19244,7.69217 -6.08146,12.482246 -6.0592,10.046278 -6.16238,10.61237 -2.58612,14.188629 3.2892,3.289201 8.8134,3.46482 10.48518,0.333333 z"
         id="path222" />
      <path
         style="fill:#d52914;stroke-width:1.33333"
         d="m 475.33331,237.33333 c -1.46666,-0.63026 -4.16666,-1.18855 -5.99999,-1.24067 -1.83334,-0.0521 -6.93334,-1.79788 -11.33334,-3.87945 -4.4,-2.08159 -8.51825,-3.82471 -9.15168,-3.87362 -2.37933,-0.1837 -12.05373,-13.34392 -16.32273,-22.20401 -9.74456,-20.22436 -11.34757,-47.78454 -3.88548,-66.80225 10.55743,-26.90642 10.34231,-25.79078 10.09069,-52.333332 L 438.5001,62.666665 h 3.26128 c 3.0459,0 3.32244,0.594372 4.18752,9 1.96355,19.079199 4.38938,24.072709 10.55556,21.728327 4.61608,-1.755026 4.44976,-3.223392 -1.83781,-16.225281 -6.43632,-13.309482 -6.62688,-14.870774 -1.66667,-13.655503 2.01667,0.49409 3.88606,1.463664 4.15418,2.154608 2.58609,6.664043 12.99284,13.832727 25.43663,17.522033 3.99163,1.183423 7.70556,2.876661 8.25319,3.762749 0.62908,1.017862 6.79379,1.955118 16.74252,2.545456 8.66075,0.513912 19.79681,1.373624 24.74681,1.91047 9.87438,1.070916 11.37488,-0.09837 4.97648,-3.877989 -4.00278,-2.364507 -4.27012,-4.86487 -0.52013,-4.86487 5.78291,0 23.21032,-12.332547 23.21032,-16.424839 0,-1.666218 7.64465,-4.374958 8.87493,-3.144669 0.24696,0.246955 -2.26547,6.026219 -5.58317,12.842809 -6.24539,12.831837 -6.62347,16.579405 -1.82624,18.101986 5.58306,1.771995 8.29857,-4.144908 9.96298,-21.708621 0.88204,-9.307669 1.04583,-9.666702 4.41044,-9.667626 l 3.49439,-9.61e-4 v 25.00096 c 0,13.750526 0.49139,26.800956 1.09197,29.000956 1.0048,3.68071 0.5239,3.40663 -6.02456,-3.43361 -9.93004,-10.37248 -12.29326,-11.6159 -24.09025,-12.67514 -13.34172,-1.197939 -17.39917,1.17584 -12.7525,7.46078 1.51584,2.05029 2.37562,4.34338 1.91062,5.09575 -0.465,0.75238 -0.30368,1.70279 0.3585,2.11203 0.66216,0.40924 1.62232,3.0007 2.13369,5.7588 1.49289,8.05197 5.30848,13.04037 11.36165,14.85394 4.68842,1.40468 5.20321,1.93288 4.02663,4.13137 -1.76552,3.29891 -1.71839,14.85812 0.10107,24.78454 2.16242,11.79753 6.77326,15.72238 11.25227,9.57821 2.08468,-2.85969 2.14542,-2.59467 1.29874,5.66667 -1.04506,10.19684 -3.27907,18.66666 -4.92355,18.66666 -0.64183,0 -6.09685,5.18491 -12.12228,11.52203 -6.02542,6.3371 -13.05532,12.40574 -15.62198,13.48585 -2.56667,1.08011 -6.46419,3.2452 -8.66116,4.81131 -12.20348,8.69925 -42.1314,13.66349 -53.33886,8.84748 z m -28.2827,-67.90719 c 1.80823,-2.14894 6.1288,-10.69894 9.60129,-19 3.62692,-8.67021 8.14775,-17.07866 10.62376,-19.75948 14.24331,-15.42147 11.48956,-23.53006 -6.31212,-18.58649 -10.32194,2.86642 -21.13378,17.95988 -25.73745,35.92977 -4.91076,19.16855 2.46903,32.53458 11.82452,21.4162 z"
         id="path220" />
      <path
         style="fill:#ac2817;stroke-width:1.33333"
         d="m 498.66665,251.11634 c -17.45484,-2.27649 -38.28291,-10.99533 -46.11979,-19.3062 l -3.88021,-4.11491 7.05567,3.53639 c 21.73283,10.89275 56.07818,9.61565 72.94433,-2.71236 2.2,-1.60805 6.1,-3.79781 8.66666,-4.86615 2.56667,-1.06832 9.59656,-7.12732 15.62199,-13.46442 6.02542,-6.33712 11.49744,-11.52203 12.16005,-11.52203 1.79793,0 4.01327,-9.72149 5.53307,-24.28078 2.70456,-25.90878 1.13165,-34.93722 -6.33936,-36.3878 -16.62576,-3.22812 -19.12865,-4.91956 -21.70011,-14.66475 C 541.83494,120.4 540.84797,117.1 540.41569,116 c -0.43228,-1.1 -0.90174,-3.04125 -1.04324,-4.31388 -0.14151,-1.27263 -1.26306,-3.42524 -2.49234,-4.78358 -6.07448,-6.71222 17.4281,-9.557396 27.06803,-3.27681 29.67264,19.33227 38.58998,73.64227 17.75046,108.10713 -16.44042,27.18955 -50.96594,43.5656 -83.03195,39.38348 z m -207.42803,-1.89357 c -13.16527,-2.20446 -12.41634,-3.2598 1.96404,-2.76759 26.45287,0.90543 55.12793,-8.38416 70.36617,-22.79584 8.96814,-8.48171 9.30662,-6.45955 0.45578,2.72305 -18.0637,18.74076 -45.62246,27.38875 -72.78599,22.84038 z M 449.99998,62.757552 c -1.46666,-0.580262 -4.91666,-0.759088 -7.66666,-0.397395 -3.37156,0.443445 -5,0.13518 -5,-0.946507 0,-1.16194 3.27272,-1.485992 11.8724,-1.175558 9.30406,0.335861 11.57624,0.789118 10.5034,2.09524 -1.52147,1.852298 -5.64422,2.032433 -9.70914,0.42422 z m 108.09081,0.05607 c -0.50317,-0.814156 -0.42945,-1.527993 0.16383,-1.586305 17.44122,-1.714264 22.69172,-1.770319 22.10294,-0.235972 -0.37153,0.968199 -2.97449,1.681521 -6.1669,1.690003 -3.0382,0.0081 -7.69774,0.374197 -10.35451,0.813614 -2.93941,0.486166 -5.18865,0.21943 -5.74536,-0.68134 z m -205.4147,-1.465014 c -0.46712,-0.755814 0.0681,-0.979343 1.25464,-0.524015 2.3099,0.886388 2.73252,1.842076 0.81462,1.842076 -0.69006,0 -1.62123,-0.593128 -2.06926,-1.318061 z M 234.99999,60.41423 c 1.28333,-0.335369 3.38333,-0.335369 4.66667,0 1.28333,0.335371 0.23333,0.609764 -2.33334,0.609764 -2.56666,0 -3.61666,-0.274393 -2.33333,-0.609764 z m 9.33333,0 c 1.28334,-0.335369 3.38334,-0.335369 4.66667,0 1.28333,0.335371 0.23333,0.609764 -2.33333,0.609764 -2.56667,0 -3.61667,-0.274393 -2.33334,-0.609764 z m 117.33333,-0.05219 c 2.75,-0.28766 7.25,-0.28766 10,0 2.75,0.287658 0.5,0.523016 -5,0.523016 -5.5,0 -7.75,-0.235358 -5,-0.523016 z"
         id="path218" />
      <path
         style="fill:#262626;stroke-width:1.33333"
         d="M 24.370546,59.042449 C 19.640841,46.717037 40.264057,16.366708 58.287224,9.128683 c 11.766673,-4.7254439 63.658876,-4.7254439 75.425546,0 15.6678,6.292119 29.2906,23.225345 32.97924,40.993393 2.19057,10.551924 1.98528,10.753642 -11.13902,10.945276 l -11.36309,0.165916 -0.92433,-4.283301 C 138.67761,35.68972 119.14484,26.954265 84.055065,30.469811 63.032471,32.576007 48.215111,44.302004 48.029281,58.979497 47.989374,62.131169 25.578682,62.1908 24.370546,59.042444 Z m 217.223394,1.299407 -9.73939,-0.461619 0.92904,-6.273452 c 5.04672,-34.078808 25.98767,-48.2734518 71.2164,-48.2734518 44.7313,0 67.2935,15.0517418 71.4512,47.6666658 l 0.89234,6.999999 -9.5051,0.222223 c -5.22782,0.122227 -10.50511,0.272221 -11.72734,0.333333 -1.55428,0.07772 -2.98348,-2.172666 -4.75489,-7.486927 -6.30297,-18.908907 -25.29857,-26.141553 -59.22381,-22.549694 -20.27963,2.147119 -30.93689,10.348421 -34.41109,26.481066 -0.63851,2.964943 -1.63656,4.249673 -3.16059,4.068403 -1.22505,-0.14571 -6.61011,-0.472657 -11.96677,-0.726546 z m 203.22692,0.02985 -7.84578,-0.515476 0.77245,-7.484277 c 3.25801,-31.567185 26.58397,-47.0386228 70.91912,-47.0386228 44.73258,0 67.63903,15.2576398 70.94123,47.2528978 l 0.76518,7.413767 -8.85322,0.238095 c -4.86925,0.13096 -10.1368,0.280953 -11.70565,0.333333 -2.31725,0.07737 -3.15649,-1.102201 -4.4729,-6.286787 -4.85098,-19.105048 -25.48887,-27.402094 -59.11372,-23.765468 -20.14239,2.17846 -28.55065,7.980967 -33.70173,23.257434 -2.58839,7.676336 -2.38744,7.601483 -17.70498,6.595104 z"
         id="path216" />
    </g>
  </g>
</svg>
