<?xml version="1.0" encoding="UTF-8"?>
<!DOCTYPE svg PUBLIC "-//W3C//DTD SVG 1.1//EN" "http://www.w3.org/Graphics/SVG/1.1/DTD/svg11.dtd">
<svg xmlns="http://www.w3.org/2000/svg" version="1.1" width="300px" height="275px" style="shape-rendering:geometricPrecision; text-rendering:geometricPrecision; image-rendering:optimizeQuality; fill-rule:evenodd; clip-rule:evenodd" xmlns:xlink="http://www.w3.org/1999/xlink">
<g><path style="opacity:0.282" fill="#7f8080" d="M 228.5,-0.5 C 229.167,-0.5 229.833,-0.5 230.5,-0.5C 230.262,1.40435 229.262,2.73769 227.5,3.5C 227.433,2.04125 227.766,0.707917 228.5,-0.5 Z"/></g>
<g><path style="opacity:1" fill="#050505" d="M 230.5,-0.5 C 237.833,-0.5 245.167,-0.5 252.5,-0.5C 252.738,1.40435 253.738,2.73769 255.5,3.5C 255.197,8.42998 255.531,13.2633 256.5,18C 264.245,18.1994 271.912,18.6994 279.5,19.5C 282.605,22.5915 285.271,25.9249 287.5,29.5C 287.5,37.1667 287.5,44.8333 287.5,52.5C 286.251,54.1361 284.584,55.3028 282.5,56C 284.855,59.2624 286.522,62.7624 287.5,66.5C 287.5,120.5 287.5,174.5 287.5,228.5C 285.707,232.652 283.041,236.319 279.5,239.5C 276.328,240.126 273.161,240.793 270,241.5C 269.5,249.493 269.334,257.493 269.5,265.5C 268.187,268.774 266.187,271.774 263.5,274.5C 245.5,274.5 227.5,274.5 209.5,274.5C 207.398,271.43 205.398,268.43 203.5,265.5C 203.5,263.5 203.5,261.5 203.5,259.5C 179.5,259.5 155.5,259.5 131.5,259.5C 131.5,261.5 131.5,263.5 131.5,265.5C 129.282,268.245 127.282,271.245 125.5,274.5C 107.5,274.5 89.5,274.5 71.5,274.5C 68.8128,271.774 66.8128,268.774 65.5,265.5C 65.7892,261.894 65.4558,258.394 64.5,255C 59.8452,254.501 55.1785,254.334 50.5,254.5C 47.855,252.69 44.855,251.69 41.5,251.5C 39.4309,248.427 36.7642,246.094 33.5,244.5C 32.5,244.167 31.8333,243.5 31.5,242.5C 28.887,238.201 26.2204,233.868 23.5,229.5C 23.0431,228.702 22.3764,228.369 21.5,228.5C 20.3995,227.395 19.7329,226.062 19.5,224.5C 19.7083,220.915 18.375,218.249 15.5,216.5C 15.5,216.167 15.5,215.833 15.5,215.5C 16.0431,215.44 16.3764,215.107 16.5,214.5C 14.6595,209.435 12.9929,204.435 11.5,199.5C 10.1667,189.833 10.1667,180.167 11.5,170.5C 13.1573,167.911 13.4906,165.244 12.5,162.5C 12.5,162.167 12.5,161.833 12.5,161.5C 13.7498,161.423 14.5831,160.756 15,159.5C 15.4017,158.128 15.9017,156.795 16.5,155.5C 16.3764,154.893 16.0431,154.56 15.5,154.5C 15.5,154.167 15.5,153.833 15.5,153.5C 16.3764,153.631 17.0431,153.298 17.5,152.5C 18.8489,149.141 20.1822,145.808 21.5,142.5C 21.7086,141.078 22.2086,139.745 23,138.5C 23.5,112.835 23.6666,87.1688 23.5,61.5C 24.6935,61.0296 25.3601,60.0296 25.5,58.5C 25.4805,57.2739 25.1471,56.2739 24.5,55.5C 24.5,55.1667 24.5,54.8333 24.5,54.5C 25.3764,54.6309 26.0431,54.2975 26.5,53.5C 27.8405,49.8098 29.1738,46.1431 30.5,42.5C 30.7376,40.5956 31.7376,39.2623 33.5,38.5C 35.8333,36.8333 37.8333,34.8333 39.5,32.5C 40.2623,30.7376 41.5956,29.7376 43.5,29.5C 48.0848,28.4317 52.0848,26.4317 55.5,23.5C 55.8333,23.5 56.1667,23.5 56.5,23.5C 56.9169,24.1239 57.5836,24.4573 58.5,24.5C 59.7133,24.2528 60.38,23.5862 60.5,22.5C 85.5,22.5 110.5,22.5 135.5,22.5C 138.063,24.3237 141.063,25.6571 144.5,26.5C 145.107,26.3764 145.44,26.0431 145.5,25.5C 145.833,25.5 146.167,25.5 146.5,25.5C 147.985,28.0827 150.318,29.416 153.5,29.5C 153.5,30.8333 154.167,31.5 155.5,31.5C 156.167,31.8333 156.833,32.1667 157.5,32.5C 157.369,33.2389 157.536,33.9056 158,34.5C 160.034,35.7213 161.867,37.0546 163.5,38.5C 164.167,38.5 164.5,38.8333 164.5,39.5C 164.654,41.9699 165.654,43.9699 167.5,45.5C 167.66,47.153 168.326,48.4863 169.5,49.5C 169.59,53.2142 170.59,56.5475 172.5,59.5C 172.5,85.5 172.5,111.5 172.5,137.5C 174.31,142.453 176.643,147.12 179.5,151.5C 180.537,152.93 181.204,154.597 181.5,156.5C 181.804,159.522 182.304,162.522 183,165.5C 183.383,166.056 183.883,166.389 184.5,166.5C 184.335,169.85 184.502,173.183 185,176.5C 185.232,177.737 185.732,178.737 186.5,179.5C 186.5,183.5 186.5,187.5 186.5,191.5C 184.525,197.606 182.858,203.939 181.5,210.5C 181.543,211.416 181.876,212.083 182.5,212.5C 186.437,212.793 190.27,212.46 194,211.5C 194.5,163.168 194.667,114.834 194.5,66.5C 196.159,63.3257 197.826,59.9924 199.5,56.5C 198.108,54.7697 196.441,53.4363 194.5,52.5C 194.5,45.1667 194.5,37.8333 194.5,30.5C 196.047,29.2318 197.047,27.5652 197.5,25.5C 200.396,22.2267 203.73,19.8934 207.5,18.5C 213.842,18.6662 220.175,18.4995 226.5,18C 227.469,13.2633 227.803,8.42998 227.5,3.5C 229.262,2.73769 230.262,1.40435 230.5,-0.5 Z M 129.5,63.5 C 131.465,67.0915 133.131,70.7582 134.5,74.5C 134.827,84.6806 134.494,94.6806 133.5,104.5C 131.819,102.992 129.819,101.992 127.5,101.5C 127.167,101.5 126.833,101.5 126.5,101.5C 125.22,100.069 123.553,99.4021 121.5,99.5C 121.167,99.5 120.833,99.5 120.5,99.5C 115.17,97.3325 109.503,96.3325 103.5,96.5C 99.5,96.5 95.5,96.5 91.5,96.5C 80.8829,96.987 70.8829,99.6537 61.5,104.5C 61.3335,94.1613 61.5002,83.828 62,73.5C 62.6077,71.8455 63.1077,70.1789 63.5,68.5C 64.803,66.8577 66.1363,65.1911 67.5,63.5C 70.054,62.3944 72.7206,61.561 75.5,61C 90.5,60.3333 105.5,60.3333 120.5,61C 123.652,61.3949 126.652,62.2282 129.5,63.5 Z"/></g>
<g><path style="opacity:0.82" fill="#808181" d="M 252.5,-0.5 C 252.833,-0.5 253.167,-0.5 253.5,-0.5C 254.6,0.60486 255.267,1.93819 255.5,3.5C 253.738,2.73769 252.738,1.40435 252.5,-0.5 Z"/></g>
<g><path style="opacity:1" fill="#648296" d="M 245.5,18.5 C 242.713,19.4767 239.713,19.81 236.5,19.5C 236.5,16.1667 236.5,12.8333 236.5,9.5C 239.833,9.5 243.167,9.5 246.5,9.5C 246.81,12.7131 246.477,15.7131 245.5,18.5 Z"/></g>
<g><path style="opacity:1" fill="#a3d3f3" d="M 245.5,18.5 C 242.833,18.5 240.167,18.5 237.5,18.5C 237.5,15.8333 237.5,13.1667 237.5,10.5C 240.167,10.5 242.833,10.5 245.5,10.5C 245.5,13.1667 245.5,15.8333 245.5,18.5 Z"/></g>
<g><path style="opacity:1" fill="#949596" d="M 60.5,22.5 C 60.38,23.5862 59.7133,24.2528 58.5,24.5C 57.5836,24.4573 56.9169,24.1239 56.5,23.5C 57.5676,22.5655 58.901,22.2322 60.5,22.5 Z"/></g>
<g><path style="opacity:1" fill="#9c9d9e" d="M 135.5,22.5 C 139.214,22.5902 142.548,23.5902 145.5,25.5C 145.44,26.0431 145.107,26.3764 144.5,26.5C 141.063,25.6571 138.063,24.3237 135.5,22.5 Z"/></g>
<g><path style="opacity:1" fill="#434444" d="M 207.5,18.5 C 203.73,19.8934 200.396,22.2267 197.5,25.5C 197.5,24.8333 197.5,24.1667 197.5,23.5C 200.019,20.2406 203.352,18.574 207.5,18.5 Z"/></g>
<g><path style="opacity:0.047" fill="#98999a" d="M 279.5,19.5 C 282.1,20.9188 284.6,22.5854 287,24.5C 287.494,26.1341 287.66,27.8008 287.5,29.5C 285.271,25.9249 282.605,22.5915 279.5,19.5 Z"/></g>
<g><path style="opacity:0.741" fill="#a0a1a2" d="M 146.5,25.5 C 149.331,26.0787 151.664,27.412 153.5,29.5C 150.318,29.416 147.985,28.0827 146.5,25.5 Z"/></g>
<g><path style="opacity:0.953" fill="#979898" d="M 55.5,23.5 C 52.0848,26.4317 48.0848,28.4317 43.5,29.5C 46.7478,26.1832 50.7478,24.1832 55.5,23.5 Z"/></g>
<g><path style="opacity:0.78" fill="#8f9191" d="M 197.5,23.5 C 197.5,24.1667 197.5,24.8333 197.5,25.5C 197.047,27.5652 196.047,29.2318 194.5,30.5C 194.166,27.509 195.166,25.1757 197.5,23.5 Z"/></g>
<g><path style="opacity:1" fill="#2a6fa6" d="M 206.5,28.5 C 229.836,28.3334 253.169,28.5 276.5,29C 277,29.5 277.5,30 278,30.5C 278.499,35.8229 278.666,41.1563 278.5,46.5C 253.833,46.5 229.167,46.5 204.5,46.5C 204.334,41.1563 204.501,35.8229 205,30.5C 205.717,29.9558 206.217,29.2891 206.5,28.5 Z"/></g>
<g><path style="opacity:0.655" fill="#979999" d="M 153.5,29.5 C 154.833,29.5 155.5,30.1667 155.5,31.5C 155.5,30.1667 154.833,29.5 153.5,29.5 Z"/></g>
<g><path style="opacity:0.008" fill="#b3b4b5" d="M 157.5,32.5 C 160.438,33.622 162.438,35.622 163.5,38.5C 161.867,37.0546 160.034,35.7213 158,34.5C 157.536,33.9056 157.369,33.2389 157.5,32.5 Z"/></g>
<g><path style="opacity:1" fill="#bfc2c3" d="M 159.5,50.5 C 162.175,59.5894 163.175,68.9228 162.5,78.5C 156.5,78.5 150.5,78.5 144.5,78.5C 145.302,65.9851 139.969,57.3184 128.5,52.5C 127.737,51.7321 126.737,51.2321 125.5,51C 106.995,50.1712 88.662,50.3379 70.5,51.5C 62.1569,53.4994 56.4903,58.4994 53.5,66.5C 51.7501,70.1829 51.0834,74.1829 51.5,78.5C 45.5,78.5 39.5,78.5 33.5,78.5C 30.5639,62.8091 34.8973,49.6425 46.5,39C 50.682,35.91 55.3487,33.91 60.5,33C 85.1667,32.3333 109.833,32.3333 134.5,33C 145.774,34.7939 154.107,40.6273 159.5,50.5 Z"/></g>
<g><path style="opacity:0.937" fill="#bfc0c1" d="M 39.5,32.5 C 37.8333,34.8333 35.8333,36.8333 33.5,38.5C 34.5,35.5 36.5,33.5 39.5,32.5 Z"/></g>
<g><path style="opacity:0.157" fill="#979899" d="M 164.5,39.5 C 166.539,40.911 167.539,42.911 167.5,45.5C 165.654,43.9699 164.654,41.9699 164.5,39.5 Z"/></g>
<g><path style="opacity:0.843" fill="#b6b7b8" d="M 167.5,45.5 C 169.104,46.287 169.771,47.6203 169.5,49.5C 168.326,48.4863 167.66,47.153 167.5,45.5 Z"/></g>
<g><path style="opacity:0.478" fill="#7c7d7d" d="M 30.5,42.5 C 29.1738,46.1431 27.8405,49.8098 26.5,53.5C 26.0431,54.2975 25.3764,54.6309 24.5,54.5C 25.1857,49.7351 27.1857,45.7351 30.5,42.5 Z"/></g>
<g><path style="opacity:1" fill="#7f8182" d="M 70.5,51.5 C 88.662,50.3379 106.995,50.1712 125.5,51C 126.737,51.2321 127.737,51.7321 128.5,52.5C 109.194,51.5499 89.8605,51.2166 70.5,51.5 Z"/></g>
<g><path style="opacity:0.882" fill="#717273" d="M 169.5,49.5 C 171.277,52.5046 172.277,55.8379 172.5,59.5C 170.59,56.5475 169.59,53.2142 169.5,49.5 Z"/></g>
<g><path style="opacity:0.047" fill="#8e8f90" d="M 287.5,52.5 C 287.617,54.4835 286.95,56.1502 285.5,57.5C 287.27,60.1934 287.937,63.1934 287.5,66.5C 286.522,62.7624 284.855,59.2624 282.5,56C 284.584,55.3028 286.251,54.1361 287.5,52.5 Z"/></g>
<g><path style="opacity:1" fill="#a2d1f1" d="M 213.5,55.5 C 231.836,55.3334 250.17,55.5001 268.5,56C 273,57.8333 276.167,61 278,65.5C 278.5,77.4954 278.667,89.4954 278.5,101.5C 253.833,101.5 229.167,101.5 204.5,101.5C 204.333,89.1622 204.5,76.8288 205,64.5C 207.362,60.9734 210.196,57.9734 213.5,55.5 Z"/></g>
<g><path style="opacity:0.514" fill="#7e7f7f" d="M 194.5,52.5 C 196.441,53.4363 198.108,54.7697 199.5,56.5C 197.826,59.9924 196.159,63.3257 194.5,66.5C 194.506,63.1498 195.506,60.1498 197.5,57.5C 196.048,56.0603 195.048,54.3936 194.5,52.5 Z"/></g>
<g><path style="opacity:1" fill="#686869" d="M 24.5,55.5 C 25.1471,56.2739 25.4805,57.2739 25.5,58.5C 25.3601,60.0296 24.6935,61.0296 23.5,61.5C 23.2053,59.2646 23.5386,57.2646 24.5,55.5 Z"/></g>
<g><path style="opacity:1" fill="#545556" d="M 159.5,50.5 C 161.129,52.8577 162.295,55.5243 163,58.5C 163.821,65.3464 163.654,72.013 162.5,78.5C 163.175,68.9228 162.175,59.5894 159.5,50.5 Z"/></g>
<g><path style="opacity:0.235" fill="#888989" d="M 67.5,63.5 C 66.1363,65.1911 64.803,66.8577 63.5,68.5C 63.3692,65.6333 64.7026,63.9666 67.5,63.5 Z"/></g>
<g><path style="opacity:0.4" fill="#9c9d9e" d="M 129.5,63.5 C 130.496,63.4142 131.329,63.7476 132,64.5C 132.748,66.3325 133.748,67.9991 135,69.5C 135.64,71.265 135.473,72.9317 134.5,74.5C 133.131,70.7582 131.465,67.0915 129.5,63.5 Z"/></g>
<g><path style="opacity:1" fill="#515353" d="M 53.5,66.5 C 52.8005,70.7978 52.4672,75.1311 52.5,79.5C 45.9779,79.8235 39.6446,79.4902 33.5,78.5C 39.6446,79.4902 45.9779,79.8235 52.5,79.5C 52.4672,75.1311 52.8005,70.7978 53.5,66.5 Z"/></g>
<g><path style="opacity:1" fill="#4b8e55" d="M 162.5,88.5 C 162.5,91.1667 162.5,93.8333 162.5,96.5C 156.5,96.5 150.5,96.5 144.5,96.5C 144.5,93.8333 144.5,91.1667 144.5,88.5C 150.5,88.5 156.5,88.5 162.5,88.5 Z"/></g>
<g><path style="opacity:1" fill="#315d38" d="M 33.5,87.5 C 39.8333,87.5 46.1667,87.5 52.5,87.5C 52.5,90.8333 52.5,94.1667 52.5,97.5C 46.1667,97.5 39.8333,97.5 33.5,97.5C 33.5,94.1667 33.5,90.8333 33.5,87.5 Z"/></g>
<g><path style="opacity:1" fill="#4b8e55" d="M 34.5,88.5 C 40.1667,88.5 45.8333,88.5 51.5,88.5C 51.5,91.1667 51.5,93.8333 51.5,96.5C 45.8333,96.5 40.1667,96.5 34.5,96.5C 34.5,93.8333 34.5,91.1667 34.5,88.5 Z"/></g>
<g><path style="opacity:1" fill="#33603a" d="M 162.5,88.5 C 163.477,91.2869 163.81,94.2869 163.5,97.5C 156.978,97.8235 150.645,97.4902 144.5,96.5C 150.5,96.5 156.5,96.5 162.5,96.5C 162.5,93.8333 162.5,91.1667 162.5,88.5 Z"/></g>
<g><path style="opacity:1" fill="#707171" d="M 103.5,96.5 C 109.503,96.3325 115.17,97.3325 120.5,99.5C 120.44,100.043 120.107,100.376 119.5,100.5C 115.562,99.5561 111.562,98.8895 107.5,98.5C 105.667,98.4146 104.334,97.7479 103.5,96.5 Z"/></g>
<g><path style="opacity:0.639" fill="#797a7a" d="M 91.5,96.5 C 91.3893,97.1174 91.056,97.6174 90.5,98C 80.7389,98.9401 71.4056,101.44 62.5,105.5C 61.8933,105.376 61.56,105.043 61.5,104.5C 70.8829,99.6537 80.8829,96.987 91.5,96.5 Z"/></g>
<g><path style="opacity:0.882" fill="#7f8080" d="M 121.5,99.5 C 123.553,99.4021 125.22,100.069 126.5,101.5C 124.219,101.923 122.552,101.256 121.5,99.5 Z"/></g>
<g><path style="opacity:0.725" fill="#6d6e6f" d="M 127.5,101.5 C 129.819,101.992 131.819,102.992 133.5,104.5C 130.784,104.614 128.784,103.614 127.5,101.5 Z"/></g>
<g><path style="opacity:1" fill="#4a4b4c" d="M 162.5,106.5 C 163.817,112.678 163.817,119.012 162.5,125.5C 161.893,125.376 161.56,125.043 161.5,124.5C 162.49,118.69 162.823,112.69 162.5,106.5 Z"/></g>
<g><path style="opacity:1" fill="#b7babb" d="M 33.5,106.5 C 39.8333,106.5 46.1667,106.5 52.5,106.5C 52.6567,107.873 52.49,109.207 52,110.5C 45.124,114.37 39.124,119.37 34,125.5C 33.5005,119.175 33.3338,112.842 33.5,106.5 Z"/></g>
<g><path style="opacity:1" fill="#4b8d55" d="M 170.5,154.5 C 171.256,158.767 172.589,162.767 174.5,166.5C 175.941,172.195 176.608,178.028 176.5,184C 176.138,193.641 174.805,203.141 172.5,212.5C 158.5,212.5 144.5,212.5 130.5,212.5C 131.991,203.298 128.324,197.464 119.5,195C 104.5,194.333 89.5,194.333 74.5,195C 71,197.167 68.1667,200 66,203.5C 65.5001,217.163 65.3334,230.829 65.5,244.5C 59.1308,244.653 52.7974,244.32 46.5,243.5C 28.7133,227.414 19.7133,207.247 19.5,183C 21.9821,151.191 37.3154,127.858 65.5,113C 103.756,99.1132 135.923,107.613 162,138.5C 165.495,143.491 168.328,148.825 170.5,154.5 Z"/></g>
<g><path style="opacity:1" fill="#bdc0c1" d="M 162.5,106.5 C 162.823,112.69 162.49,118.69 161.5,124.5C 156.79,119.463 151.457,115.129 145.5,111.5C 144.548,109.955 144.215,108.288 144.5,106.5C 150.5,106.5 156.5,106.5 162.5,106.5 Z"/></g>
<g><path style="opacity:1" fill="#2a6fa6" d="M 275.5,230.5 C 273.5,230.5 271.5,230.5 269.5,230.5C 269.827,221.318 269.493,212.318 268.5,203.5C 266.658,199.492 263.658,196.659 259.5,195C 243.833,194.333 228.167,194.333 212.5,195C 208.961,196.907 206.461,199.74 205,203.5C 204.5,172.835 204.333,142.168 204.5,111.5C 229.167,111.5 253.833,111.5 278.5,111.5C 278.667,150.501 278.5,189.501 278,228.5C 277.292,229.381 276.458,230.047 275.5,230.5 Z"/></g>
<g><path style="opacity:0.384" fill="#727373" d="M 172.5,137.5 C 176.409,141.317 178.742,145.984 179.5,151.5C 176.643,147.12 174.31,142.453 172.5,137.5 Z"/></g>
<g><path style="opacity:0.463" fill="#727374" d="M 21.5,142.5 C 20.1822,145.808 18.8489,149.141 17.5,152.5C 17.0431,153.298 16.3764,153.631 15.5,153.5C 16.6311,150.111 17.9645,146.778 19.5,143.5C 19.9569,142.702 20.6236,142.369 21.5,142.5 Z"/></g>
<g><path style="opacity:0.227" fill="#828484" d="M 15.5,154.5 C 16.0431,154.56 16.3764,154.893 16.5,155.5C 15.9017,156.795 15.4017,158.128 15,159.5C 14.5831,160.756 13.7498,161.423 12.5,161.5C 12.7073,158.759 13.7073,156.426 15.5,154.5 Z"/></g>
<g><path style="opacity:1" fill="#305b36" d="M 170.5,154.5 C 172.806,158.085 174.139,162.085 174.5,166.5C 172.589,162.767 171.256,158.767 170.5,154.5 Z"/></g>
<g><path style="opacity:1" fill="#585959" d="M 181.5,156.5 C 183.277,159.505 184.277,162.838 184.5,166.5C 183.883,166.389 183.383,166.056 183,165.5C 182.304,162.522 181.804,159.522 181.5,156.5 Z"/></g>
<g><path style="opacity:1" fill="#747676" d="M 12.5,162.5 C 13.4906,165.244 13.1573,167.911 11.5,170.5C 11.1936,167.615 11.5269,164.948 12.5,162.5 Z"/></g>
<g><path style="opacity:1" fill="#747575" d="M 184.5,166.5 C 186.054,170.567 186.72,174.9 186.5,179.5C 185.732,178.737 185.232,177.737 185,176.5C 184.502,173.183 184.335,169.85 184.5,166.5 Z"/></g>
<g><path style="opacity:0.725" fill="#6e6f6f" d="M 186.5,191.5 C 186.192,198.705 184.859,205.705 182.5,212.5C 181.876,212.083 181.543,211.416 181.5,210.5C 182.858,203.939 184.525,197.606 186.5,191.5 Z"/></g>
<g><path style="opacity:1" fill="#e44343" d="M 77.5,203.5 C 91.1707,203.333 104.837,203.5 118.5,204C 119.416,204.374 120.25,204.874 121,205.5C 121.667,225.5 121.667,245.5 121,265.5C 120.167,266.333 119.333,267.167 118.5,268C 104.592,268.823 90.7583,268.656 77,267.5C 75.8552,256.927 75.3552,246.26 75.5,235.5C 75.6667,225.5 75.8333,215.5 76,205.5C 76.7172,204.956 77.2172,204.289 77.5,203.5 Z"/></g>
<g><path style="opacity:1" fill="#e44343" d="M 215.5,203.5 C 229.504,203.333 243.504,203.5 257.5,204C 258,204.5 258.5,205 259,205.5C 259.667,225.5 259.667,245.5 259,265.5C 258.308,266.025 257.808,266.692 257.5,267.5C 243.846,268.666 230.179,268.833 216.5,268C 215.667,267.167 214.833,266.333 214,265.5C 213.333,245.5 213.333,225.5 214,205.5C 214.717,204.956 215.217,204.289 215.5,203.5 Z"/></g>
<g><path style="opacity:1" fill="#143652" d="M 268.5,203.5 C 269.493,212.318 269.827,221.318 269.5,230.5C 271.5,230.5 273.5,230.5 275.5,230.5C 273.393,231.468 271.059,231.802 268.5,231.5C 268.5,222.167 268.5,212.833 268.5,203.5 Z"/></g>
<g><path style="opacity:0.545" fill="#7c7d7e" d="M 11.5,199.5 C 12.9929,204.435 14.6595,209.435 16.5,214.5C 16.3764,215.107 16.0431,215.44 15.5,215.5C 12.3601,210.724 11.0268,205.391 11.5,199.5 Z"/></g>
<g><path style="opacity:0.804" fill="#636363" d="M 15.5,216.5 C 18.375,218.249 19.7083,220.915 19.5,224.5C 17.6127,222.211 16.2794,219.545 15.5,216.5 Z"/></g>
<g><path style="opacity:1" fill="#ca3334" d="M 130.5,221.5 C 155.167,221.5 179.833,221.5 204.5,221.5C 204.5,230.833 204.5,240.167 204.5,249.5C 179.833,249.5 155.167,249.5 130.5,249.5C 130.5,240.167 130.5,230.833 130.5,221.5 Z"/></g>
<g><path style="opacity:0.984" fill="#767878" d="M 21.5,228.5 C 22.3764,228.369 23.0431,228.702 23.5,229.5C 26.2204,233.868 28.887,238.201 31.5,242.5C 26.7082,238.932 23.3749,234.265 21.5,228.5 Z"/></g>
<g><path style="opacity:0.471" fill="#767777" d="M 287.5,228.5 C 287.904,234.426 285.238,238.092 279.5,239.5C 283.041,236.319 285.707,232.652 287.5,228.5 Z"/></g>
<g><path style="opacity:1" fill="#244529" d="M 46.5,243.5 C 52.7974,244.32 59.1308,244.653 65.5,244.5C 63.0221,245.164 60.3555,245.497 57.5,245.5C 53.5313,245.706 49.8646,245.039 46.5,243.5 Z"/></g>
<g><path style="opacity:0.353" fill="#5a5b5b" d="M 33.5,244.5 C 36.7642,246.094 39.4309,248.427 41.5,251.5C 37.5925,250.593 34.9258,248.26 33.5,244.5 Z"/></g>
<g><path style="opacity:1" fill="#606061" d="M 41.5,251.5 C 44.855,251.69 47.855,252.69 50.5,254.5C 47.0836,254.472 44.0836,253.472 41.5,251.5 Z"/></g>
<g><path style="opacity:0.259" fill="#88898a" d="M 131.5,265.5 C 131.518,269.129 130.184,272.129 127.5,274.5C 126.833,274.5 126.167,274.5 125.5,274.5C 127.282,271.245 129.282,268.245 131.5,265.5 Z"/></g>
<g><path style="opacity:0.478" fill="#6e6f6f" d="M 203.5,265.5 C 205.398,268.43 207.398,271.43 209.5,274.5C 208.833,274.5 208.167,274.5 207.5,274.5C 204.816,272.129 203.482,269.129 203.5,265.5 Z"/></g>
<g><path style="opacity:0.063" fill="#6c6d6e" d="M 65.5,265.5 C 66.8128,268.774 68.8128,271.774 71.5,274.5C 70.8333,274.5 70.1667,274.5 69.5,274.5C 66.8158,272.129 65.4825,269.129 65.5,265.5 Z"/></g>
<g><path style="opacity:0.063" fill="#6d6e6e" d="M 269.5,265.5 C 269.518,269.129 268.184,272.129 265.5,274.5C 264.833,274.5 264.167,274.5 263.5,274.5C 266.187,271.774 268.187,268.774 269.5,265.5 Z"/></g>
</svg>
