<?xml version="1.0" standalone="no"?>
<!DOCTYPE svg PUBLIC "-//W3C//DTD SVG 20010904//EN"
 "http://www.w3.org/TR/2001/REC-SVG-20010904/DTD/svg10.dtd">
<svg version="1.0" xmlns="http://www.w3.org/2000/svg"
 width="600.000000pt" height="600.000000pt" viewBox="0 0 600.000000 600.000000"
 preserveAspectRatio="xMidYMid meet">
<metadata>
Created by potrace 1.14, written by Peter Selinger 2001-2017
</metadata>
<g transform="translate(0.000000,600.000000) scale(0.100000,-0.100000)"
fill="#000000" stroke="none">
<path d="M4576 5737 c3 -10 9 -15 12 -12 3 3 0 11 -7 18 -10 9 -11 8 -5 -6z"/>
<path d="M4598 5725 c-8 -19 -17 -24 -32 -20 -12 3 -15 2 -8 -1 9 -4 10 -10 3
-18 -5 -6 -11 -57 -12 -111 -1 -55 -6 -119 -11 -141 -11 -51 -7 -50 -253 -53
-93 -1 -181 -5 -195 -8 -61 -15 -159 -91 -145 -112 4 -7 1 -10 -7 -9 -7 2 -12
-3 -10 -10 1 -8 -2 -11 -8 -7 -22 14 -28 -49 -29 -290 l-1 -250 33 -21 c17
-11 31 -26 30 -32 -3 -11 10 -16 29 -13 4 0 5 -6 2 -14 -4 -8 -10 -15 -16 -15
-5 0 -6 -5 -2 -12 5 -7 2 -9 -9 -5 -19 7 -44 -18 -27 -28 9 -6 14 1 11 17 0 4
6 5 15 1 13 -5 13 -7 2 -14 -7 -5 -14 -13 -14 -19 -1 -5 -2 -14 -3 -20 0 -5
-9 -10 -18 -10 -15 0 -14 2 3 15 10 8 14 15 7 15 -17 0 -27 -19 -31 -60 -5
-43 -9 -498 -16 -1870 -4 -586 -7 -1071 -8 -1077 -1 -14 -15 -19 -69 -27 -49
-7 -148 -10 -154 -4 -2 2 1 22 7 44 6 21 11 45 9 52 -1 6 2 12 7 12 5 0 8 10
8 22 -1 13 2 28 7 35 5 7 10 31 10 53 1 22 5 40 10 40 4 0 7 4 7 10 0 5 -8 7
-17 4 -16 -5 -16 -4 1 10 10 8 16 22 13 30 -4 9 -1 18 5 22 7 4 6 9 -3 15 -9
5 -10 9 -2 9 8 0 11 58 12 208 0 182 -6 258 -26 312 -7 19 -9 27 -17 70 -13
78 -18 94 -37 132 -11 22 -22 49 -24 60 -3 12 -14 38 -25 60 -11 21 -20 45
-20 53 0 7 -5 17 -12 21 -7 5 -8 3 -3 -6 5 -9 4 -11 -3 -6 -15 9 -15 39 0 54
8 8 9 12 1 12 -6 0 -13 -6 -16 -12 -2 -7 -8 -10 -12 -5 -5 4 -4 12 2 18 16 16
4 39 -21 40 -20 0 -20 1 -1 9 19 8 19 9 -2 9 -17 1 -21 5 -16 18 5 12 3 14 -8
9 -8 -4 -5 0 6 9 20 17 20 17 -5 10 -23 -7 -24 -7 -10 10 8 11 10 16 4 12 -31
-18 -34 44 -34 853 -1 546 -4 810 -11 810 -6 0 -8 4 -5 9 7 10 -23 101 -33
101 -4 0 -8 11 -9 26 -1 14 -6 33 -12 43 -5 10 -6 21 -3 25 3 3 0 6 -7 6 -27
0 -80 86 -80 131 0 11 -4 19 -10 19 -18 0 -130 91 -130 106 0 7 -16 20 -35 28
-19 8 -44 30 -55 48 -11 18 -20 26 -21 18 0 -9 -4 -6 -9 6 -6 15 -27 28 -62
39 -29 9 -71 25 -93 36 -22 10 -60 23 -85 28 -61 14 -1628 15 -1645 1 -6 -5
-29 -12 -51 -15 -21 -3 -46 -9 -54 -12 -8 -4 -17 -7 -20 -7 -21 -4 -70 -30
-70 -37 0 -5 -6 -9 -13 -9 -8 0 -24 -11 -37 -25 -13 -14 -32 -25 -42 -25 -10
0 -18 -5 -18 -11 0 -5 -4 -8 -9 -4 -5 3 -17 -8 -27 -24 -10 -16 -25 -31 -33
-34 -9 -2 -20 -5 -26 -7 -13 -4 -35 -27 -35 -35 0 -8 -18 -30 -56 -70 -17 -18
-37 -49 -44 -69 -6 -20 -16 -36 -21 -36 -6 0 -7 -5 -4 -10 4 -6 1 -17 -5 -25
-6 -8 -8 -20 -4 -27 5 -10 4 -10 -6 -1 -11 10 -11 15 0 30 13 17 13 17 -4 2
-15 -14 -16 -21 -7 -38 7 -11 8 -21 3 -21 -4 0 -8 -8 -9 -17 -2 -26 -31 -91
-44 -99 -8 -4 -8 -1 0 15 7 11 8 21 4 21 -4 0 -2 4 5 9 7 4 15 17 17 27 2 10
4 19 5 19 1 0 4 11 6 25 3 18 2 22 -6 14 -6 -6 -13 -20 -15 -30 -2 -11 -4 -20
-5 -21 -2 -2 -4 -7 -5 -13 -1 -5 -4 -12 -5 -15 -1 -3 -3 -8 -4 -12 -1 -5 -9
-33 -18 -63 -14 -48 -17 -157 -20 -857 -4 -674 -7 -805 -19 -819 -8 -9 -13
-20 -13 -23 1 -3 -2 -16 -7 -29 -5 -13 -9 -28 -9 -33 0 -5 -5 -9 -11 -9 -5 0
-7 5 -3 12 4 7 3 8 -5 4 -9 -6 -9 -11 -1 -21 7 -9 7 -15 1 -19 -5 -4 -8 -15
-6 -26 2 -12 0 -18 -6 -15 -5 4 -9 1 -9 -5 0 -6 -5 -8 -11 -4 -8 4 -8 0 0 -15
10 -17 9 -21 -4 -21 -10 0 -13 5 -9 12 5 7 3 8 -5 4 -7 -5 -10 -11 -7 -14 3
-3 0 -12 -7 -20 -9 -13 -9 -14 1 -8 25 15 12 -32 -15 -49 -23 -15 -24 -19 -10
-27 23 -12 21 -23 -5 -49 -13 -12 -17 -19 -10 -15 15 9 15 -3 0 -37 -7 -15
-19 -27 -26 -27 -14 0 -30 -37 -37 -84 -19 -146 -26 -520 -11 -631 4 -33 8
-68 7 -77 0 -10 4 -20 10 -23 5 -4 9 -12 9 -18 0 -8 -3 -8 -9 2 -6 8 -8 1 -7
-22 1 -26 4 -33 13 -26 7 7 14 6 19 -2 4 -8 3 -9 -4 -5 -7 4 -12 4 -13 -1 0
-4 -2 -18 -5 -30 -2 -12 1 -25 6 -28 5 -3 7 -12 3 -20 -3 -8 -1 -15 4 -15 4 0
9 14 9 31 1 21 -1 27 -7 18 -6 -10 -8 -7 -6 9 0 12 4 22 8 22 10 0 20 -30 14
-40 -3 -5 0 -12 5 -15 8 -5 6 -13 -6 -26 -11 -12 -13 -19 -5 -19 6 0 11 -6 10
-12 -3 -18 11 -48 23 -48 5 0 6 6 2 13 -5 8 -3 8 9 -2 16 -13 14 -36 -3 -26
-14 9 3 -39 19 -53 9 -8 10 -10 2 -6 -10 5 -11 1 -6 -17 4 -13 12 -26 16 -27
5 -2 7 -8 3 -13 -3 -5 0 -9 5 -9 6 0 10 -3 9 -8 -2 -13 14 -42 21 -37 4 2 8
-1 9 -8 2 -27 9 -45 25 -70 9 -15 17 -29 17 -32 0 -14 64 -135 72 -135 4 0 8
-7 8 -15 0 -8 5 -15 12 -15 6 0 9 -2 6 -5 -8 -8 133 -146 159 -156 16 -6 21
-14 17 -26 -5 -14 -4 -15 4 -4 8 11 14 10 33 -8 12 -11 27 -21 33 -21 5 0 7
-3 4 -6 -9 -8 61 -73 102 -94 47 -24 81 -28 234 -31 70 -1 139 -4 152 -7 30
-5 40 -39 43 -140 1 -39 8 -87 16 -106 15 -34 79 -125 99 -138 19 -13 1096
-10 1096 3 0 6 6 9 13 6 8 -3 14 1 14 9 0 7 -5 10 -10 7 -13 -8 -4 8 50 84 39
56 43 67 43 121 0 58 1 60 29 64 16 2 37 1 47 -3 11 -3 23 -4 28 -1 12 7 123
5 134 -2 4 -3 25 -1 45 4 20 4 39 4 42 0 3 -4 21 -4 40 0 19 4 37 4 40 0 3 -4
21 -4 40 0 20 4 38 4 41 -1 3 -5 10 -7 15 -3 9 5 142 8 164 4 6 -1 15 -1 20 0
6 1 30 1 55 1 25 -1 52 -1 60 -1 8 -1 34 1 58 2 23 2 42 0 42 -4 0 -4 12 -3
28 1 15 4 39 4 55 0 15 -4 27 -4 27 -1 0 8 85 6 106 -2 8 -3 14 -2 14 3 0 4
19 5 43 1 23 -3 57 -3 75 1 18 4 35 3 37 -2 3 -4 11 -6 18 -3 8 3 41 6 75 7
l62 2 1 -70 c1 -38 1 -73 0 -77 0 -5 2 -8 7 -8 4 0 8 -11 9 -25 4 -46 6 -51
30 -62 13 -6 21 -7 17 -2 -3 5 0 9 6 9 7 0 9 -7 6 -16 -3 -9 -6 -18 -6 -21 0
-3 -7 1 -17 8 -15 13 -15 12 -2 -9 8 -12 15 -18 17 -12 2 6 9 7 14 4 7 -5 8
-2 4 7 -4 8 1 4 10 -8 l16 -23 544 0 c534 0 544 0 564 20 29 29 90 126 90 143
0 7 2 16 5 19 3 2 6 96 7 207 1 241 6 275 33 277 11 1 62 12 113 24 70 17 92
25 88 36 -7 17 6 18 23 2 11 -11 11 -9 1 12 -13 24 -12 24 5 10 13 -10 16 -11
11 -2 -5 9 3 29 22 55 68 96 62 -67 62 1746 0 1069 -4 1642 -10 1646 -6 3 -10
17 -10 31 0 13 -4 24 -9 24 -5 0 -12 12 -15 26 -4 15 -19 42 -33 60 l-25 34
23 9 c13 5 36 20 52 33 l27 24 0 233 0 232 -32 47 c-35 52 -41 60 -93 115 -20
20 -41 38 -48 38 -7 1 -25 3 -42 4 -85 8 -191 16 -290 21 -60 3 -111 7 -114 9
-8 8 -13 62 -18 180 -3 66 -10 131 -17 145 l-11 25 -238 3 -237 2 -12 -25z
m487 -4 c3 -5 2 -12 -3 -15 -5 -3 -9 1 -9 9 0 17 3 19 12 6z m-2600 -1204
c100 -30 103 -32 144 -117 60 -123 63 -134 61 -317 -1 -200 -12 -398 -22 -409
-2 -2 -26 8 -53 21 -26 14 -55 25 -62 25 -8 0 -25 7 -38 16 -13 8 -39 18 -57
20 -18 3 -58 12 -88 21 -138 40 -170 43 -425 39 -137 -2 -263 -6 -280 -10 -16
-4 -59 -14 -95 -22 -90 -20 -182 -51 -269 -90 l-73 -34 4 308 c6 351 11 381
83 467 35 41 54 54 101 69 94 30 145 33 594 30 343 -1 435 -5 475 -17z m1050
-1667 c3 -5 2 -10 -4 -10 -5 0 -13 5 -16 10 -3 6 -2 10 4 10 5 0 13 -4 16 -10z
m140 -1170 c3 -5 1 -10 -4 -10 -6 0 -11 5 -11 10 0 6 2 10 4 10 3 0 8 -4 11
-10z m-12 -55 c-3 -9 -8 -14 -10 -11 -3 3 -2 9 2 15 9 16 15 13 8 -4z m-3368
-85 c-3 -5 -1 -10 5 -10 6 0 8 -4 5 -10 -3 -5 0 -10 7 -10 10 0 9 -3 -2 -9
-19 -13 -27 -6 -24 21 3 28 3 28 10 28 3 0 2 -4 -1 -10z m3810 -1160 c-3 -5
-1 -10 5 -10 6 0 8 -4 5 -10 -3 -5 -1 -10 4 -10 6 0 11 -6 11 -12 -1 -7 -10
-2 -20 11 -22 26 -25 41 -9 41 5 0 7 -4 4 -10z"/>
<path d="M3914 4666 c13 -10 15 -16 6 -16 -8 0 -4 -8 10 -20 13 -11 28 -20 34
-20 6 0 4 5 -4 10 -8 5 -15 15 -15 21 0 6 -11 18 -25 26 -23 14 -24 14 -6 -1z"/>
<path d="M380 2850 c-9 -6 -10 -10 -3 -10 6 0 15 5 18 10 8 12 4 12 -15 0z"/>
<path d="M366 2818 c3 -5 10 -6 15 -3 13 9 11 12 -6 12 -8 0 -12 -4 -9 -9z"/>
<path d="M5730 1107 c-14 -22 -16 -27 -19 -48 0 -5 -5 -8 -10 -4 -6 3 -15 -4
-21 -16 -8 -15 -9 -19 -1 -15 6 4 11 1 12 -6 0 -7 5 -3 11 10 6 12 15 22 19
22 4 0 6 9 4 20 -2 11 0 20 5 20 8 0 23 30 17 36 -1 2 -9 -7 -17 -19z"/>
<path d="M715 800 c-8 -13 9 -20 24 -11 10 6 9 10 -3 14 -8 3 -18 2 -21 -3z"/>
<path d="M751 764 c0 -11 3 -14 6 -6 3 7 2 16 -1 19 -3 4 -6 -2 -5 -13z"/>
</g>
</svg>
